<svg width="640" height="360" viewBox="0 0 640 360" fill="none" color="white" xmlns="http://www.w3.org/2000/svg">
    <path
        d="M321.5 360.5H319.5V257.5L319.997 257.497C320.329 257.495 320.66 257.491 320.99 257.484L321.5 257.475V360.5Z"
        fill="currentColor" />
    <path
        d="M252.042 217.657C252.202 217.946 252.364 218.234 252.528 218.522L252.776 218.959L78.1514 317.186C77.8221 316.606 77.4942 316.026 77.1689 315.444L251.799 217.216L252.042 217.657Z"
        fill="currentColor" />
    <path
        d="M562.83 315.444C562.505 316.026 562.177 316.606 561.848 317.186L386.902 218.779L386.467 218.535L386.711 218.1C386.873 217.811 387.033 217.52 387.191 217.229L387.434 216.784L562.83 315.444Z"
        fill="currentColor" />
    <path
        d="M561.847 42.8135C562.176 43.3926 562.505 43.972 562.83 44.5537L387.018 143.448L386.773 143.011C386.612 142.722 386.448 142.434 386.283 142.146L386.031 141.709L386.472 141.462L561.847 42.8135Z"
        fill="currentColor" />
    <path
        d="M253.218 141.287L252.961 141.726C252.794 142.012 252.628 142.299 252.465 142.587L252.22 143.021L77.1689 44.5547C77.4943 43.9727 77.823 43.3929 78.1523 42.8135L253.218 141.287Z"
        fill="currentColor" />
    <path
        d="M321.5 103.524L320.99 103.515C320.66 103.508 320.329 103.504 319.997 103.502L319.5 103.499V-0.5H321.5V103.524Z"
        fill="currentColor" />
    <path
        d="M290 150L350 210M315.23 175.23C314.673 175.787 314.011 176.23 313.282 176.531C312.554 176.833 311.773 176.988 310.985 176.988C310.197 176.988 309.416 176.833 308.688 176.531C307.959 176.23 307.297 175.787 306.74 175.23C306.183 174.673 305.74 174.011 305.439 173.282C305.137 172.554 304.982 171.773 304.982 170.985C304.982 170.197 305.137 169.416 305.439 168.688C305.74 167.959 306.183 167.297 306.74 166.74M324.5 184.5L302 207M338 180L347 189V159C347 157.409 346.368 155.883 345.243 154.757C344.117 153.632 342.591 153 341 153H311M294.77 154.77C294.211 155.324 293.766 155.982 293.463 156.708C293.159 157.434 293.002 158.213 293 159V201C293 202.591 293.632 204.117 294.757 205.243C295.883 206.368 297.409 207 299 207H341C342.65 207 344.156 206.34 345.23 205.23"
        stroke="currentColor" stroke-width="3" stroke-linecap="round" stroke-linejoin="round" />
    <circle cx="319.5" cy="180.5" r="77.5" stroke="currentColor" stroke-dasharray="20 20" />
</svg>