<?xml version="1.0" standalone="no"?>
<svg xmlns:xlink="http://www.w3.org/1999/xlink" id="wave" style="transform:rotate(0deg); transition: 0.3s" viewBox="0 0 1440 150" version="1.1" xmlns="http://www.w3.org/2000/svg"><path style="transform:translate(0, 0px); opacity:1" fill="currentColor" d="M0,45L40,42.5C80,40,160,35,240,47.5C320,60,400,90,480,97.5C560,105,640,90,720,77.5C800,65,880,55,960,62.5C1040,70,1120,95,1200,107.5C1280,120,1360,120,1440,102.5C1520,85,1600,50,1680,32.5C1760,15,1840,15,1920,22.5C2000,30,2080,45,2160,60C2240,75,2320,90,2400,82.5C2480,75,2560,45,2640,35C2720,25,2800,35,2880,35C2960,35,3040,25,3120,20C3200,15,3280,15,3360,32.5C3440,50,3520,85,3600,95C3680,105,3760,90,3840,80C3920,70,4000,65,4080,65C4160,65,4240,70,4320,82.5C4400,95,4480,115,4560,120C4640,125,4720,115,4800,100C4880,85,4960,65,5040,65C5120,65,5200,85,5280,87.5C5360,90,5440,75,5520,67.5C5600,60,5680,60,5720,60L5760,60L5760,150L5720,150C5680,150,5600,150,5520,150C5440,150,5360,150,5280,150C5200,150,5120,150,5040,150C4960,150,4880,150,4800,150C4720,150,4640,150,4560,150C4480,150,4400,150,4320,150C4240,150,4160,150,4080,150C4000,150,3920,150,3840,150C3760,150,3680,150,3600,150C3520,150,3440,150,3360,150C3280,150,3200,150,3120,150C3040,150,2960,150,2880,150C2800,150,2720,150,2640,150C2560,150,2480,150,2400,150C2320,150,2240,150,2160,150C2080,150,2000,150,1920,150C1840,150,1760,150,1680,150C1600,150,1520,150,1440,150C1360,150,1280,150,1200,150C1120,150,1040,150,960,150C880,150,800,150,720,150C640,150,560,150,480,150C400,150,320,150,240,150C160,150,80,150,40,150L0,150Z"/></svg>